<?xml version="1.0" encoding="utf-8"?>
<svg version="1.1" id="Layer_1" x="0px" y="0px" width="67.409px" height="33.206px" viewBox="0 0 67.409 33.206" enable-background="new 0 0 67.409 33.206" xmlns="http://www.w3.org/2000/svg">
  <g id="Menu_Pressed">
    <path fill="#F5F5F5" stroke="#FFFFFF" stroke-miterlimit="10" d="M66.909,16.603c0,8.903-7.229,16.103-16.102,16.103   c-8.901,0-16.102-7.2-16.102-16.103c0-8.896,7.2-16.103,16.102-16.103C59.681,0.5,66.909,7.707,66.909,16.603z" id="path2"/>
    <g id="g10">
      <rect x="43.612" y="11.978" width="14.361" height="1.552" id="rect4" style="fill: rgb(105, 168, 243);"/>
      <rect x="43.612" y="15.896" width="14.361" height="1.552" id="rect6" style="fill: rgb(105, 168, 243);"/>
      <rect x="43.612" y="19.706" width="14.361" height="1.532" id="rect8" style="fill: rgb(105, 168, 243);"/>
    </g>
  </g>
  <g id="Switcher_PRessed">
    <path fill="#F5F5F5" stroke="#FFFFFF" stroke-miterlimit="10" d="M32.706,16.603c0,8.903-7.201,16.103-16.103,16.103   c-8.872,0-16.103-7.2-16.103-16.103C0.5,7.707,7.731,0.5,16.603,0.5C25.505,0.5,32.706,7.707,32.706,16.603z" id="path13"/>
    <g id="g19">
      <polygon points="14.087,16.502 11.056,16.502 11.056,12.718 16.528,12.718 16.528,14.039 18.328,14.039     18.328,10.979 9.437,10.979 9.437,18.369 14.087,18.369   " id="polygon15" style="fill: rgb(105, 168, 243);"/>
      <path d="M14.837,14.663v7.584h8.96v-7.584H14.837z M21.998,20.447h-5.47v-3.945h5.47V20.447z" id="path17" style="fill: rgb(105, 168, 243);"/>
    </g>
  </g>
  <g id="g22"/>
  <g id="g24"/>
  <g id="g26"/>
  <g id="g28"/>
  <g id="g30"/>
  <g id="g32"/>
  <g id="g34"/>
  <g id="g36"/>
  <g id="g38"/>
  <g id="g40"/>
  <g id="g42"/>
  <g id="g44"/>
  <g id="g46"/>
  <g id="g48"/>
  <g id="g50"/>
</svg>